<?xml version="1.0" encoding="UTF-8"?>
<svg xmlns="http://www.w3.org/2000/svg" xmlns:xlink="http://www.w3.org/1999/xlink" width="50pt" height="50pt" viewBox="0 0 50 50" version="1.1">
<rect x="10" y="10" width="60%" height="60%" fill="white"/>
<g id="surface11750083">
<path style=" stroke:none;fill-rule:nonzero;fill:rgb(33.72549%,33.72549%,47.058824%);fill-opacity:1;" d="M 10.417969 6.25 C 8.113281 6.25 6.25 8.113281 6.25 10.417969 L 6.25 39.582031 C 6.25 41.886719 8.113281 43.75 10.417969 43.75 L 39.582031 43.75 C 41.886719 43.75 43.75 41.886719 43.75 39.582031 L 43.75 10.417969 C 43.75 8.113281 41.886719 6.25 39.582031 6.25 Z M 16.667969 14.582031 C 17.199219 14.582031 17.730469 14.785156 18.140625 15.195312 L 25 22.054688 L 31.859375 15.195312 C 32.0625 14.988281 32.296875 14.835938 32.546875 14.734375 C 33.300781 14.429688 34.195312 14.582031 34.804688 15.195312 C 35.621094 16.007812 35.621094 17.324219 34.804688 18.140625 L 27.945312 25 L 34.804688 31.859375 C 35.417969 32.472656 35.570312 33.367188 35.265625 34.117188 C 35.164062 34.371094 35.011719 34.601562 34.804688 34.804688 C 34.601562 35.007812 34.371094 35.160156 34.117188 35.261719 C 33.867188 35.363281 33.601562 35.417969 33.332031 35.417969 C 32.800781 35.417969 32.265625 35.210938 31.859375 34.804688 L 25 27.945312 L 18.140625 34.804688 C 17.734375 35.210938 17.199219 35.417969 16.667969 35.417969 C 16.132812 35.417969 15.601562 35.210938 15.195312 34.804688 C 14.378906 33.992188 14.378906 32.675781 15.195312 31.859375 L 22.054688 25 L 15.195312 18.140625 C 14.378906 17.324219 14.378906 16.007812 15.195312 15.195312 C 15.601562 14.785156 16.132812 14.582031 16.667969 14.582031 Z M 16.667969 14.582031 "/>
</g>
</svg>
